# xmcd
#
# Track frame offsets:
#	150
#	17112
#	29557
#	45538
#	59694
#	75228
#	90293
#	109612
#	123301
#	134930
#	153601
#	171529
#
# Disc length: 2429 seconds
#
# Revision: 1
# Processed by: cddbd v1.5.1PL0 Copyright (c) Steve Scherf et al.
# Submitted via: audiograbber 1.83.01
#
DISCID=a0097b0c
DTITLE=The Sidekicks - Pickin' OnLos Lobos
DYEAR=2005
DGENRE=Country
TTITLE0=Will The Wolf Survive
TTITLE1=River of Fools
TTITLE2=One Time, One Night
TTITLE3=La Bamba
TTITLE4=Wreck of the Carlos Rey
TTITLE5=Be Still
TTITLE6=Emily
TTITLE7=Good Morning Aztlan
TTITLE8=Wrong Man Theme
TTITLE9=Saint Behind The Glass
TTITLE10=Mas Y Mas
TTITLE11=The Swingin' Jalapeno
EXTD=CMH CD 8877
EXTT0=
EXTT1=
EXTT2=
EXTT3=
EXTT4=
EXTT5=
EXTT6=
EXTT7=
EXTT8=
EXTT9=
EXTT10=
EXTT11=
PLAYORDER=
